<?xml version="1.0" standalone="no"?>
<svg xmlns="http://www.w3.org/2000/svg" viewBox="0 0 44.64 52.480000000000004" width="44.64" height="52.480000000000004"><rect fill="none" stroke="#dac107" stroke-width="4" width="40.64" height="48.480000000000004" x="2" y="2"></rect><path fill="#000000" fill-rule="nonzero" d="M20.64 20.28L20.64 20.28Q20.64 24.24 18.50 26.36Q16.36 28.48 12.52 28.48L12.52 28.48L8.68 28.48Q3.96 28.48 1.98 26.84Q0 25.20 0 21.16L0 21.16L0 0L12.04 0Q16.12 0 18.18 2.04Q20.24 4.08 20.24 7.80L20.24 7.80Q20.24 9.96 19.14 11.48Q18.04 13 16.72 13.64L16.72 13.64Q20.64 15.48 20.64 20.28ZM5.56 11.12L11.60 11.12Q14.68 11.12 14.68 8.04Q14.68 4.96 11.60 4.96L11.60 4.96L5.56 4.96L5.56 11.12ZM15.08 20L15.08 20Q15.08 18.08 14.40 17.10Q13.72 16.12 11.96 16.12L11.96 16.12L5.56 16.12L5.56 20.60Q5.56 22.24 6.38 22.88Q7.20 23.52 9.08 23.52L9.08 23.52L11.96 23.52Q15.08 23.52 15.08 20Z" transform="translate(12 12.001) scale(1)"></path></svg>